# ProBuilder 4.0.5
# https://unity3d.com/unity/features/worldbuilding/probuilder
# 2/24/2020 7:28:34 PM

mtllib ./Grass_1_(Caves_Area_3).mtl
o Grass 1 (Caves Area 3)

g Grass 1 (Caves Area 3)
v -0.5320299 -0.6731123 0.711733
v -0.4113266 -0.6804549 0.7117333
v -0.3221729 -0.6829022 0.7117329
v -0.1661344 -0.7000349 0.7117327
v -0.05931308 -0.6682173 0.711733
v -0.0801756 -0.2022315 0.6839938
v 0.003594125 0.1853713 0.7440325
v -0.2372195 0.05766017 0.777419
v -0.3960374 -0.6752511 0.7547849
v -0.0530316 0.5090861 0.7251219
v -0.195108 0.3687333 0.6943538
v -0.2584271 0.7117347 0.6343533

vt 7.981463 0.0918414
vt 6.170683 0.06158364
vt 4.833209 0.06194469
vt 2.492334 -0.03547014
vt 0.8898093 0.2301185
vt 1.232948 3.851008
vt -0.08903444 6.675697
vt 3.487328 5.565943
vt 5.894507 -0.003563796
vt -0.8829191 0.2412078
vt -2.473035 -0.01526894
vt -4.795784 0.1032073
vt -6.122901 0.1139858
vt -7.91966 0.1598145
vt -5.807692 0.1310608
vt -3.397508 5.814427
vt 0.1192321 6.845746
vt -1.24993 3.867644
vt 0.7810214 9.181188
vt 2.945891 8.157168
vt 3.961036 10.91159
vt -0.7621725 9.360909
vt -2.939703 8.277428
vt -4.004369 10.96504

vn -0.009124912 0.01415638 -0.001075712
vn 0.0002352597 0.02007814 -0.0710935
vn -0.007174204 0.01188533 -0.06968836
vn 0.0003504861 -0.01302148 -0.07159887
vn 0.001067705 -0.01348191 -0.07156863
vn -0.008652883 0.01153499 -0.0688616
vn -0.01400976 0.04412061 -0.06589977
vn -0.01068309 0.02413008 -0.04109744
vn -0.01857347 0.008311203 0.06894848
vn -0.001067705 0.01348191 0.07156863
vn -0.000350486 0.01302148 0.07159887
vn 0.007174204 -0.01188533 0.06968836
vn -0.0002352602 -0.02007814 0.0710935
vn 0.00912491 -0.01415638 0.001075712
vn 0.01857347 -0.008311201 -0.06894848
vn 0.01068309 -0.02413008 0.04109744
vn 0.01400976 -0.0441206 0.06589977
vn 0.008652884 -0.01153499 0.0688616
vn 0.0140192 -0.003948655 -0.07031845
vn 0.007098215 -0.02981015 -0.06761505
vn 0.0001772281 -0.05567164 -0.06491165
vn 0.01897265 -0.02473411 -0.06758012
vn -0.01897265 0.02473411 0.06758012
vn -0.0140192 0.003948655 0.07031846
vn -0.007098215 0.02981015 0.06761505
vn -0.0001772281 0.05567164 0.06491165

g Grass 1 (Caves Area 3)
usemtl Grass
f 6/6/6 8/8/8 7/7/7
f 8/8/8 1/1/1 9/9/9
f 8/8/8 2/2/2 1/1/1
f 8/8/8 3/3/3 2/2/2
f 8/8/8 6/6/6 3/3/3
f 3/3/3 6/6/6 4/4/4
f 6/6/6 5/5/5 4/4/4
f 4/11/11 5/10/10 6/18/18
f 4/11/11 6/18/18 3/12/12
f 3/12/12 6/18/18 8/16/16
f 2/13/13 3/12/12 8/16/16
f 1/14/14 2/13/13 8/16/16
f 9/15/15 1/14/14 8/16/16
f 7/17/17 8/16/16 6/18/18
f 11/20/22 12/21/22 10/19/22
f 12/24/23 11/23/23 10/22/23
f 10/19/19 7/7/20 8/8/21
f 8/8/21 11/20/20 10/19/19
f 8/16/26 7/17/25 10/22/24
f 10/22/24 11/23/25 8/16/26

