ply
format ascii 1.0
comment Exported by [ProBuilder](http://www.procore3d.com/probuilder)
comment 4/19/2020 1:27:24 PM
element vertex 70
property float32 x
property float32 y
property float32 z
property float32 nx
property float32 ny
property float32 nz
property uint8 red
property uint8 green
property uint8 blue
property uint8 alpha
element face 20
property list uint8 int32 vertex_index
end_header
0.977457 0.4408436 1.189854 0.7840515 -0.6149375 0.08435121 255 255 255 255
0.938221 0.4560184 1.665184 0.7840515 -0.6149375 0.08435121 255 255 255 255
1.305519 0.9161196 1.605349 0.7840515 -0.6149375 0.08435121 255 255 255 255
0.938221 0.4560184 1.665184 -0.7840515 0.6149375 -0.08435121 255 255 255 255
0.977457 0.4408436 1.189854 -0.7840515 0.6149375 -0.08435121 255 255 255 255
1.305519 0.9161196 1.605349 -0.7840515 0.6149375 -0.08435121 255 255 255 255
0.9299784 0.003321648 1.266998 0.9503289 -0.04892977 0.3073774 255 255 255 255
0.8502131 0.0109148 1.51482 0.9607881 -0.1352208 0.1973103 255 255 255 255
0.938221 0.4560184 1.665184 0.9712473 -0.2215118 0.08724319 255 255 255 255
0.977457 0.4408436 1.189854 0.9607881 -0.1352208 0.1973103 255 255 255 255
0.8502131 0.0109148 1.51482 -0.9607881 0.1352208 -0.1973103 255 255 255 255
0.9299784 0.003321648 1.266998 -0.9503289 0.04892977 -0.3073774 255 255 255 255
0.938221 0.4560184 1.665184 -0.9712473 0.2215118 -0.08724319 255 255 255 255
0.977457 0.4408436 1.189854 -0.9607881 0.1352208 -0.1973103 255 255 255 255
0.6851006 0.7148906 1.922012 -0.865256 -0.0883891 0.4934769 255 255 255 255
0.5852451 0.6776208 1.740252 -0.865256 -0.0883891 0.4934769 255 255 255 255
0.6052351 1.144756 1.858973 -0.865256 -0.0883891 0.4934769 255 255 255 255
0.5852451 0.6776208 1.740252 0.865256 0.0883891 -0.4934769 255 255 255 255
0.6851006 0.7148906 1.922012 0.865256 0.0883891 -0.4934769 255 255 255 255
0.6052351 1.144756 1.858973 0.865256 0.0883891 -0.4934769 255 255 255 255
0.7661991 0 1.970495 -0.791814 -0.04853483 0.6088309 255 255 255 255
0.5314522 0 1.665195 -0.8347875 -0.01594432 0.5438202 255 255 255 255
0.5852451 0.6776208 1.740252 -0.877761 0.01664617 0.4788095 255 255 255 255
0.6851006 0.7148906 1.922012 -0.8347875 -0.01594432 0.5438202 255 255 255 255
0.5314522 0 1.665195 0.8347875 0.01594432 -0.5438202 255 255 255 255
0.7661991 0 1.970495 0.791814 0.04853483 -0.6088309 255 255 255 255
0.5852451 0.6776208 1.740252 0.877761 -0.01664617 -0.4788095 255 255 255 255
0.6851006 0.7148906 1.922012 0.8347875 0.01594432 -0.5438202 255 255 255 255
0.4138899 0.4422798 1.61277 -0.5525635 -0.05403305 -0.8317175 255 255 255 255
0.8195515 0.9370329 1.311121 -0.5525635 -0.05403305 -0.8317175 255 255 255 255
0.4325266 1.55701 1.527969 -0.5525635 -0.05403305 -0.8317175 255 255 255 255
0.8195515 0.9370329 1.311121 0.5525635 0.05403305 0.8317175 255 255 255 255
0.4138899 0.4422798 1.61277 0.5525635 0.05403305 0.8317175 255 255 255 255
0.4325266 1.55701 1.527969 0.5525635 0.05403305 0.8317175 255 255 255 255
0.6950655 -0.02220154 1.774424 -0.7476007 -0.5707557 -0.3396045 255 255 255 255
0.8758593 -0.02220154 1.376427 -0.6351452 -0.3295828 -0.5937655 255 255 255 255
0.8195515 0.9370329 1.311121 -0.5226896 -0.08841002 -0.8479264 255 255 255 255
0.4138899 0.4422798 1.61277 -0.6351452 -0.3295828 -0.5937655 255 255 255 255
0.8758593 -0.02220154 1.376427 0.6351452 0.3295828 0.5937655 255 255 255 255
0.6950655 -0.02220154 1.774424 0.7476007 0.5707557 0.3396045 255 255 255 255
0.8195515 0.9370329 1.311121 0.5226896 0.08841002 0.8479264 255 255 255 255
0.4138899 0.4422798 1.61277 0.6351452 0.3295828 0.5937655 255 255 255 255
0.856719 0.4479847 2.094074 -0.3585461 0.6630028 -0.6571696 255 255 255 255
1.144521 0.4490204 1.938097 -0.3585461 0.6630028 -0.6571696 255 255 255 255
1.074323 0.7440662 2.274061 -0.3585461 0.6630028 -0.6571696 255 255 255 255
1.144521 0.4490204 1.938097 0.3585461 -0.6630028 0.6571696 255 255 255 255
0.856719 0.4479847 2.094074 0.3585461 -0.6630028 0.6571696 255 255 255 255
1.074323 0.7440662 2.274061 0.3585461 -0.6630028 0.6571696 255 255 255 255
0.7787104 -0.01649952 1.881231 -0.5970866 0.414883 -0.6865564 255 255 255 255
0.9452562 -0.01649952 1.736389 -0.5048646 0.4599834 -0.7222955 255 255 255 255
1.144521 0.4490204 1.938097 -0.4126426 0.5050838 -0.7580346 255 255 255 255
0.856719 0.4479847 2.094074 -0.5048646 0.4599834 -0.7222955 255 255 255 255
0.9452562 -0.01649952 1.736389 0.5048646 -0.4599834 0.7222955 255 255 255 255
0.7787104 -0.01649952 1.881231 0.5970866 -0.414883 0.6865564 255 255 255 255
1.144521 0.4490204 1.938097 0.4126426 -0.5050838 0.7580346 255 255 255 255
0.856719 0.4479847 2.094074 0.5048646 -0.4599834 0.7222955 255 255 255 255
0.3994961 0.4644814 1.71468 0.6527278 0.1298585 -0.7463801 255 255 255 255
0.42978 0.4655199 1.741344 0.6527278 0.1298585 -0.7463801 255 255 255 255
0.3835001 0.7605658 1.752205 0.6527278 0.1298585 -0.7463801 255 255 255 255
0.42978 0.4655199 1.741344 -0.6527278 -0.1298585 0.7463801 255 255 255 255
0.3994961 0.4644814 1.71468 -0.6527278 -0.1298585 0.7463801 255 255 255 255
0.3835001 0.7605658 1.752205 -0.6527278 -0.1298585 0.7463801 255 255 255 255
0.4154119 0 1.613205 0.7331151 0.16904 -0.6587623 255 255 255 255
0.5706968 0 1.786016 0.6931205 0.1475469 -0.7027231 255 255 255 255
0.42978 0.4655199 1.741344 0.6531259 0.1260538 -0.746684 255 255 255 255
0.3994961 0.4644814 1.71468 0.6931205 0.1475469 -0.7027231 255 255 255 255
0.5706968 0 1.786016 -0.6931205 -0.1475469 0.7027231 255 255 255 255
0.4154119 0 1.613205 -0.7331151 -0.16904 0.6587623 255 255 255 255
0.42978 0.4655199 1.741344 -0.6531259 -0.1260538 0.746684 255 255 255 255
0.3994961 0.4644814 1.71468 -0.6931205 -0.1475469 0.7027231 255 255 255 255
3 2 1 0
3 5 4 3
4 9 8 7 6
4 11 10 12 13
3 16 15 14
3 19 18 17
4 23 22 21 20
4 25 24 26 27
3 30 29 28
3 33 32 31
4 37 36 35 34
4 39 38 40 41
3 44 43 42
3 47 46 45
4 51 50 49 48
4 53 52 54 55
3 58 57 56
3 61 60 59
4 65 64 63 62
4 67 66 68 69
